# xmcd
#
# Track frame offsets: 
#        150
#        13619
#        26411
#        38679
#        51908
#        64176
#        75917
#        90013
#        101486
#        116788
#        128325
#        137646
#        155625
#        167156
#        177862
#        188402
#        198103
#        210830
#        221447
#        231346
#        244160
#        255737
#        267427
#        277529
#        286961
#        298491
#        310576
#        320330
#        331496
#        343310
#
# Disc length: 4707 seconds
#
# Revision: 0
# Processed by: cddbd v1.5.2PL0 Copyright (c) Steve Scherf et al.
# Submitted via: ExactAudioCopyFreeDBPlugin 1.0
#
DISCID=9e12611e
DTITLE=Various Artist - Lone Star Guitar Attack: The Kings Of Texas B
DTITLE=lues Guitar
DYEAR=2018
DGENRE=Blues
TTITLE0=Jesse Thomas - Let's Have Some Fun
TTITLE1=Clarence Garlow - In A Boogie Mood
TTITLE2=Goree Carter and His Hepcats - Rock Awhile
TTITLE3=Goree Carter and His Hepcats - My Love Is Coming Down
TTITLE4=Rocky Thompson and His Guitar (aka Goree Carter) - Bullcorn Blue
TTITLE4=s
TTITLE5=Clarence Gatemouth Brown - Gate Walks To Board
TTITLE6=Quinn Kimble Orchestra with Cal Green - Blue Memories
TTITLE7=Connie Mack Booker with Cal Green - Love Me Pretty Baby
TTITLE8=Connie Mack Booker with Cal Green - All Alone
TTITLE9=Clarence Gatemouth Brown and The Pluma Davis Orchestra - Okie Do
TTITLE9=kie Stomp
TTITLE10=Peppermint Harris with Albert Collins - I Got To Go
TTITLE11=Peppermint Harris with Albert Collins - Smiles
TTITLE12=Peppermint Harris with Albert Collins - Houston Can't Be Heav
TTITLE12=en
TTITLE13=Albert Collins and The Rhythm Rockers - Collins Shuffle
TTITLE14=Albert Collins and The Rhythm Rockers - Freeze
TTITLE15=Ray Sharpe and The Blues Whalers - Oh, My Baby's Gone
TTITLE16=Clarence Gatemouth Brown - Swingin' The Gate
TTITLE17=Royal Earl and The Swingin' Kools - Royal Earl Shuffle
TTITLE18=Royal Earl and The Swingin' Kools - Talking Guitar (Part 2)
TTITLE19=Cal Valentine and The Texas Rockers - The Boogie Twist (Part 2)
TTITLE20=Long John Hunter - El Paso Rock
TTITLE21=Long John Hunter - Midnight Stroll
TTITLE22=Sonny Guitar with Long John Hunter - Strange Feeling
TTITLE23=Long John Hunter - Grandma
TTITLE24=The Daylighters with Willie Cephus - Something Is Wrong
TTITLE25=Easy Deal Wilson with Ray Sharpe - Dallas
TTITLE26=Clarence Green and The Rhythmaires - Crazy Strings
TTITLE27=Albert Collins - Defrost
TTITLE28=Albert Collins - Albert's Alley
TTITLE29=Clarence Green - Red Light
EXTD=
EXTT0=
EXTT1=
EXTT2=
EXTT3=
EXTT4=
EXTT5=
EXTT6=
EXTT7=
EXTT8=
EXTT9=
EXTT10=
EXTT11=
EXTT12=
EXTT13=
EXTT14=
EXTT15=
EXTT16=
EXTT17=
EXTT18=
EXTT19=
EXTT20=
EXTT21=
EXTT22=
EXTT23=
EXTT24=
EXTT25=
EXTT26=
EXTT27=
EXTT28=
EXTT29=
PLAYORDER=
